<svg width="92" height="92" viewBox="0 0 92 92" fill="none" xmlns="http://www.w3.org/2000/svg">
<path d="M45.52 0C20.4207 0 0 20.4207 0 45.52C0 70.6193 20.4207 91.04 45.52 91.04C70.6193 91.04 91.04 70.6193 91.04 45.52C91.04 20.4207 70.6193 0 45.52 0ZM45.52 87.0817C22.6017 87.0817 3.95826 68.4383 3.95826 45.52C3.95826 22.6017 22.6017 3.95826 45.52 3.95826C68.4383 3.95826 87.0817 22.6017 87.0817 45.52C87.0817 68.4383 68.4383 87.0817 45.52 87.0817Z" fill="#16123F"/>
<path d="M35.6244 37.6035C35.6244 34.33 32.9604 31.6661 29.687 31.6661C26.4135 31.6661 23.7496 34.33 23.7496 37.6035C23.7496 40.877 26.4135 43.5409 29.687 43.5409C32.9604 43.5409 35.6244 40.877 35.6244 37.6035ZM27.7078 37.6035C27.7078 36.513 28.5965 35.6243 29.687 35.6243C30.7775 35.6243 31.6661 36.513 31.6661 37.6035C31.6661 38.694 30.7775 39.5826 29.687 39.5826C28.5965 39.5826 27.7078 38.694 27.7078 37.6035Z" fill="#16123F"/>
<path d="M61.353 31.6661C58.0796 31.6661 55.4156 34.33 55.4156 37.6035C55.4156 40.877 58.0796 43.5409 61.353 43.5409C64.6265 43.5409 67.2904 40.877 67.2904 37.6035C67.2904 34.33 64.6265 31.6661 61.353 31.6661ZM61.353 39.5826C60.2625 39.5826 59.3739 38.694 59.3739 37.6035C59.3739 36.513 60.2625 35.6243 61.353 35.6243C62.4435 35.6243 63.3322 36.513 63.3322 37.6035C63.3322 38.694 62.4435 39.5826 61.353 39.5826Z" fill="#16123F"/>
<path d="M64.6523 55.9203C63.8369 55.19 62.5841 55.2613 61.8577 56.0747C57.7293 60.6881 51.776 63.3322 45.52 63.3322C39.266 63.3322 33.3108 60.6881 29.1823 56.0747C28.452 55.2613 27.2032 55.19 26.3878 55.9203C25.5724 56.6486 25.5051 57.8995 26.2334 58.7149C31.1119 64.1654 38.1418 67.2904 45.52 67.2904C52.9002 67.2904 59.9301 64.1634 64.8066 58.7149C65.535 57.8995 65.4657 56.6486 64.6523 55.9203Z" fill="#16123F"/>
</svg>
