<svg width="18" height="18" viewBox="0 0 18 18" fill="none" xmlns="http://www.w3.org/2000/svg">
<path d="M12.2068 10.5895L9.69709 8.70719V4.87298C9.69709 4.48745 9.38547 4.17583 8.99994 4.17583C8.61442 4.17583 8.3028 4.48745 8.3028 4.87298V9.0558C8.3028 9.27538 8.40598 9.48245 8.58165 9.61351L11.3702 11.7049C11.4957 11.799 11.6421 11.8444 11.7878 11.8444C12.0004 11.8444 12.2095 11.7488 12.3462 11.5648C12.5777 11.2573 12.5149 10.8202 12.2068 10.5895Z" fill="white"/>
<path d="M9 0C4.0371 0 0 4.0371 0 9C0 13.9629 4.0371 18 9 18C13.9629 18 18 13.9629 18 9C18 4.0371 13.9629 0 9 0ZM9 16.6057C4.80674 16.6057 1.39426 13.1933 1.39426 9C1.39426 4.80674 4.80674 1.39426 9 1.39426C13.194 1.39426 16.6057 4.80674 16.6057 9C16.6057 13.1933 13.1933 16.6057 9 16.6057Z" fill="white"/>
</svg>
