<svg width="92" height="92" viewBox="0 0 92 92" fill="none" xmlns="http://www.w3.org/2000/svg">
<path d="M45.52 0C20.4187 0 0 20.4207 0 45.52C0 70.6193 20.4187 91.04 45.52 91.04C70.6213 91.04 91.04 70.6193 91.04 45.52C91.04 20.4207 70.6213 0 45.52 0ZM45.52 87.0817C22.6036 87.0817 3.95826 68.4383 3.95826 45.52C3.95826 22.6017 22.6036 3.95826 45.52 3.95826C68.4364 3.95826 87.0817 22.6017 87.0817 45.52C87.0817 68.4383 68.4364 87.0817 45.52 87.0817Z" fill="#16123F"/>
<path d="M36.2023 46.9192C36.5882 47.3052 37.0949 47.4991 37.6015 47.4991C38.1082 47.4991 38.6149 47.3052 39.0008 46.9192C39.7746 46.1454 39.7746 44.8946 39.0008 44.1207L32.4815 37.6035L38.9988 31.0882C39.7726 30.3143 39.7726 29.0635 38.9988 28.2897C38.225 27.5158 36.9742 27.5158 36.2003 28.2897L29.683 34.8069L23.1658 28.2897C22.3919 27.5158 21.1411 27.5158 20.3673 28.2897C19.5934 29.0635 19.5934 30.3143 20.3673 31.0882L26.8845 37.6035L20.3653 44.1207C19.5915 44.8946 19.5915 46.1454 20.3653 46.9192C20.7512 47.3052 21.2579 47.4991 21.7645 47.4991C22.2712 47.4991 22.7779 47.3052 23.1638 46.9192L29.683 40.4L36.2023 46.9192Z" fill="#16123F"/>
<path d="M64.1516 37.6035L70.6688 31.0882C71.4427 30.3143 71.4427 29.0635 70.6688 28.2897C69.895 27.5158 68.6442 27.5158 67.8704 28.2897L61.3531 34.8069L54.8358 28.2897C54.062 27.5158 52.8112 27.5158 52.0373 28.2897C51.2635 29.0635 51.2635 30.3143 52.0373 31.0882L58.5546 37.6035L52.0353 44.1207C51.2615 44.8946 51.2615 46.1454 52.0353 46.9192C52.4213 47.3052 52.9279 47.4991 53.4346 47.4991C53.9412 47.4991 54.4479 47.3052 54.8338 46.9192L61.3531 40.4L67.8723 46.9192C68.2583 47.3052 68.7649 47.4991 69.2716 47.4991C69.7782 47.4991 70.2849 47.3052 70.6708 46.9192C71.4447 46.1454 71.4447 44.8946 70.6708 44.1207L64.1516 37.6035Z" fill="#16123F"/>
<path d="M61.351 59.3739H29.6849C28.5905 59.3739 27.7058 60.2606 27.7058 61.353C27.7058 62.4455 28.5905 63.3322 29.6849 63.3322H61.351C62.4455 63.3322 63.3302 62.4455 63.3302 61.353C63.3302 60.2606 62.4455 59.3739 61.351 59.3739Z" fill="#16123F"/>
</svg>
