<svg width="92" height="92" viewBox="0 0 92 92" fill="none" xmlns="http://www.w3.org/2000/svg">
<path d="M65.5733 56.4302C64.7579 55.6998 63.505 55.7711 62.7787 56.5845C58.6501 61.198 52.6968 63.8422 46.4406 63.8422C40.1865 63.8422 34.2311 61.198 30.1026 56.5845C29.3723 55.7711 28.1234 55.6998 27.308 56.4302C26.4926 57.1585 26.4253 58.4093 27.1536 59.2247C32.0323 64.6754 39.0623 67.8005 46.4406 67.8005C53.821 67.8005 60.851 64.6734 65.7276 59.2247C66.456 58.4093 66.3867 57.1585 65.5733 56.4302Z" fill="#16123F"/>
<path d="M46.4408 0.508728C21.341 0.508728 0.919922 20.9298 0.919922 46.0296C0.919922 71.1295 21.341 91.5505 46.4408 91.5505C71.5407 91.5505 91.9617 71.1295 91.9617 46.0296C91.9617 20.9298 71.5407 0.508728 46.4408 0.508728ZM46.4408 87.5922C23.522 87.5922 4.87826 68.9484 4.87826 46.0296C4.87826 23.1108 23.522 4.46707 46.4408 4.46707C69.3596 4.46707 88.0034 23.1108 88.0034 46.0296C88.0034 68.9484 69.3596 87.5922 46.4408 87.5922Z" fill="#16123F"/>
<path d="M62.2743 32.1754C56.8177 32.1754 52.3784 36.6147 52.3784 42.0713C52.3784 43.1638 53.2651 44.0505 54.3576 44.0505C55.4501 44.0505 56.3368 43.1638 56.3368 42.0713C56.3368 38.7977 59.0007 36.1338 62.2743 36.1338C65.5478 36.1338 68.2118 38.7977 68.2118 42.0713C68.2118 43.1638 69.0984 44.0505 70.1909 44.0505C71.2835 44.0505 72.1701 43.1638 72.1701 42.0713C72.1701 36.6147 67.7308 32.1754 62.2743 32.1754Z" fill="#16123F"/>
<path d="M36.5448 42.0713C36.5448 43.1638 37.4314 44.0505 38.524 44.0505C39.6165 44.0505 40.5031 43.1638 40.5031 42.0713C40.5031 36.6147 36.0638 32.1754 30.6073 32.1754C25.1507 32.1754 20.7114 36.6147 20.7114 42.0713C20.7114 43.1638 21.5981 44.0505 22.6906 44.0505C23.7831 44.0505 24.6698 43.1638 24.6698 42.0713C24.6698 38.7977 27.3337 36.1338 30.6073 36.1338C33.8808 36.1338 36.5448 38.7977 36.5448 42.0713Z" fill="#16123F"/>
</svg>
