<svg width="92" height="92" viewBox="0 0 92 92" fill="none" xmlns="http://www.w3.org/2000/svg">
<path d="M45.52 0C20.4207 0 0 20.4207 0 45.52C0 70.6193 20.4207 91.04 45.52 91.04C70.6213 91.04 91.04 70.6193 91.04 45.52C91.04 20.4207 70.6213 0 45.52 0ZM45.52 87.0817C22.6017 87.0817 3.95826 68.4383 3.95826 45.52C3.95826 22.6017 22.6017 3.95826 45.52 3.95826C68.4364 3.95826 87.0817 22.6017 87.0817 45.52C87.0817 68.4383 68.4364 87.0817 45.52 87.0817Z" fill="#16123F"/>
<path d="M35.6243 37.6035C35.6243 34.33 32.9604 31.6661 29.6869 31.6661C26.4134 31.6661 23.7495 34.33 23.7495 37.6035C23.7495 40.877 26.4134 43.5409 29.6869 43.5409C32.9604 43.5409 35.6243 40.877 35.6243 37.6035ZM27.7078 37.6035C27.7078 36.513 28.5964 35.6243 29.6869 35.6243C30.7774 35.6243 31.666 36.513 31.666 37.6035C31.666 38.694 30.7774 39.5826 29.6869 39.5826C28.5964 39.5826 27.7078 38.694 27.7078 37.6035Z" fill="#16123F"/>
<path d="M61.353 31.6661C58.0796 31.6661 55.4156 34.33 55.4156 37.6035C55.4156 40.877 58.0796 43.5409 61.353 43.5409C64.6265 43.5409 67.2904 40.877 67.2904 37.6035C67.2904 34.33 64.6265 31.6661 61.353 31.6661ZM61.353 39.5826C60.2606 39.5826 59.3739 38.694 59.3739 37.6035C59.3739 36.513 60.2606 35.6243 61.353 35.6243C62.4455 35.6243 63.3322 36.513 63.3322 37.6035C63.3322 38.694 62.4455 39.5826 61.353 39.5826Z" fill="#16123F"/>
<path d="M45.52 55.4156C38.1418 55.4156 31.1119 58.5407 26.2334 63.9912C25.5051 64.8066 25.5743 66.0574 26.3877 66.7858C27.2032 67.5161 28.454 67.4448 29.1823 66.6314C33.3107 62.018 39.266 59.3739 45.52 59.3739C51.7741 59.3739 57.7293 62.018 61.8577 66.6314C62.2476 67.0688 62.7899 67.2904 63.3322 67.2904C63.8012 67.2904 64.2762 67.1242 64.6523 66.7858C65.4657 66.0574 65.5349 64.8066 64.8066 63.9912C59.9281 58.5427 52.9002 55.4156 45.52 55.4156Z" fill="#16123F"/>
</svg>
